<?xml version="1.0" standalone="no"?>
<!DOCTYPE svg PUBLIC "-//W3C//DTD SVG 20010904//EN"
 "http://www.w3.org/TR/2001/REC-SVG-20010904/DTD/svg10.dtd">
<svg version="1.0" xmlns="http://www.w3.org/2000/svg"
 width="940.000000pt" height="555.000000pt" viewBox="0 0 940.000000 555.000000"
 preserveAspectRatio="xMidYMid meet">

<g transform="translate(0.000000,555.000000) scale(0.100000,-0.100000)"
fill="#000000" stroke="none">
<path d="M722 5533 c-45 -22 -110 -98 -117 -137 -3 -17 -4 -1089 -3 -2383 l3
-2351 30 -44 c20 -28 49 -52 84 -71 l55 -27 3830 0 c2670 0 3843 3 3869 11 49
13 115 73 138 124 18 38 19 138 19 2375 0 1485 -4 2348 -10 2370 -13 47 -63
106 -111 130 -38 20 -77 20 -3896 20 -3539 0 -3861 -2 -3891 -17z m7578 -2493
l0 -2310 -3690 0 -3690 0 0 2310 0 2310 3690 0 3690 0 0 -2310z"/>
<path d="M4537 3802 c-213 -500 -387 -912 -387 -916 0 -3 41 -5 91 -4 l91 3
384 900 c211 495 386 906 389 913 3 9 -18 12 -88 12 l-93 0 -387 -908z"/>
<path d="M3210 4135 l-635 -263 -3 -88 -2 -89 637 -262 638 -261 3 95 c1 53 1
98 -2 100 -2 2 -223 94 -490 203 -268 110 -493 203 -501 207 -10 6 144 74 483
212 273 112 501 206 505 210 4 4 6 51 5 103 l-3 96 -635 -263z"/>
<path d="M5392 4298 l3 -101 502 -206 c342 -140 498 -208 488 -214 -8 -4 -233
-97 -501 -207 -267 -109 -488 -201 -490 -203 -3 -2 -3 -47 -2 -100 l3 -95 638
261 637 262 -2 89 -3 88 -625 259 c-344 142 -631 261 -638 264 -10 4 -12 -17
-10 -97z"/>
<path d="M2394 2606 c-145 -35 -241 -148 -252 -297 -12 -174 64 -264 343 -407
156 -80 205 -132 205 -216 0 -112 -94 -185 -222 -173 -99 9 -155 55 -204 165
-1 2 -36 -14 -78 -35 -47 -23 -76 -43 -76 -53 0 -34 54 -122 101 -164 79 -71
140 -90 284 -90 100 0 129 4 177 23 81 31 158 104 194 183 25 55 28 75 29 158
0 78 -4 104 -23 145 -36 77 -106 135 -255 211 -73 37 -152 81 -175 98 -116 82
-121 217 -12 274 83 42 191 18 246 -54 l26 -33 79 39 c43 22 79 44 79 48 0 12
-29 53 -64 90 -80 86 -253 124 -402 88z"/>
<path d="M3334 2606 c-145 -35 -241 -148 -252 -297 -12 -174 64 -264 343 -407
156 -80 205 -132 205 -216 0 -112 -94 -185 -222 -173 -99 9 -155 55 -204 165
-1 2 -36 -14 -78 -35 -47 -23 -76 -43 -76 -53 0 -34 54 -122 101 -164 79 -71
140 -90 284 -90 100 0 129 4 177 23 81 31 158 104 194 183 25 55 28 75 29 158
0 78 -4 104 -23 145 -36 77 -106 135 -255 211 -73 37 -152 81 -175 98 -116 82
-121 217 -12 274 83 42 191 18 246 -54 l26 -33 79 39 c43 22 79 44 79 48 0 12
-29 53 -64 90 -80 86 -253 124 -402 88z"/>
<path d="M6625 2613 c-115 -15 -250 -80 -339 -163 -83 -79 -132 -153 -170
-260 -28 -78 -30 -95 -30 -215 0 -114 4 -140 27 -212 64 -193 209 -336 402
-400 70 -23 97 -26 215 -27 153 -1 231 17 330 76 l55 33 3 108 c1 59 0 107 -3
107 -2 0 -25 -15 -49 -34 -156 -119 -372 -149 -534 -74 -64 30 -162 130 -194
198 -82 175 -58 396 59 538 151 185 464 202 683 37 l35 -26 9 92 c8 91 8 93
-15 112 -40 33 -166 87 -237 103 -63 13 -178 16 -247 7z"/>
<path d="M4050 1975 l0 -617 283 5 c155 3 305 10 332 16 73 16 183 72 237 120
66 59 123 149 155 244 24 74 27 96 27 232 0 136 -3 158 -27 231 -48 146 -137
253 -261 316 -100 50 -164 59 -468 65 l-278 5 0 -617z m586 411 c100 -31 173
-107 216 -224 31 -83 31 -291 0 -374 -41 -114 -104 -181 -204 -220 -44 -17
-82 -22 -225 -26 l-173 -5 0 438 0 438 168 -6 c112 -3 184 -10 218 -21z"/>
<path d="M5320 1975 l0 -615 325 0 325 0 0 90 0 90 -225 0 -225 0 0 525 0 525
-100 0 -100 0 0 -615z"/>
<path d="M0 325 c0 -165 8 -197 68 -258 71 -73 -356 -67 4632 -67 4988 0 4561
-6 4632 67 60 61 68 93 68 258 l0 145 -4700 0 -4700 0 0 -145z m5310 35 c29
-29 28 -127 0 -158 l-21 -22 -586 0 -587 0 -23 22 c-32 30 -33 121 -1 155 l21
23 589 0 c575 0 588 0 608 -20z"/>
</g>
</svg>
